<svg width="24" height="24" viewBox="0 0 24 24" fill="none" xmlns="http://www.w3.org/2000/svg">
<path d="M20.6101 19.1901C21.2368 18.35 21.6669 17.3799 21.8686 16.3515C22.0703 15.323 22.0385 14.2624 21.7755 13.2478C21.5125 12.2333 21.025 11.2908 20.3491 10.4898C19.6732 9.68883 18.826 9.04986 17.8701 8.62005C17.6619 7.42215 17.1834 6.28747 16.4709 5.30222C15.7585 4.31698 14.8308 3.50708 13.7585 2.93408C12.6861 2.36108 11.4972 2.04006 10.2822 1.99539C9.06713 1.95073 7.8579 2.1836 6.74635 2.67631C5.6348 3.16903 4.65018 3.90863 3.86731 4.83891C3.08443 5.76918 2.5239 6.86567 2.22831 8.04505C1.93271 9.22443 1.90982 10.4557 2.16139 11.6452C2.41295 12.8348 2.93235 13.9513 3.68011 14.9101L2.29011 16.2901C2.15136 16.4307 2.05736 16.6093 2.01998 16.8032C1.98261 16.9972 2.00353 17.1979 2.08011 17.3801C2.15513 17.5627 2.28253 17.719 2.44625 17.8293C2.60997 17.9397 2.80269 17.9991 3.00011 18.0001H8.69011C9.25676 19.1947 10.1501 20.2043 11.2669 20.9122C12.3836 21.6201 13.6779 21.9973 15.0001 22.0001H21.0001C21.1975 21.9991 21.3903 21.9397 21.554 21.8293C21.7177 21.719 21.8451 21.5627 21.9201 21.3801C21.9967 21.1979 22.0176 20.9972 21.9802 20.8032C21.9429 20.6093 21.8489 20.4307 21.7101 20.2901L20.6101 19.1901ZM8.00011 15.0001C8.00149 15.3349 8.02823 15.6692 8.08011 16.0001H5.41011L5.76011 15.6601C5.85384 15.5671 5.92824 15.4565 5.979 15.3346C6.02977 15.2128 6.05591 15.0821 6.05591 14.9501C6.05591 14.818 6.02977 14.6873 5.979 14.5655C5.92824 14.4436 5.85384 14.333 5.76011 14.2401C5.19967 13.6858 4.75536 13.0253 4.45317 12.2973C4.15097 11.5693 3.99695 10.7883 4.00011 10.0001C4.00011 8.40875 4.63225 6.88263 5.75747 5.75741C6.88269 4.63219 8.40881 4.00005 10.0001 4.00005C11.2418 3.99259 12.4546 4.37444 13.468 5.09192C14.4815 5.8094 15.2446 6.82643 15.6501 8.00005C15.4301 8.00005 15.2201 8.00005 15.0001 8.00005C13.1436 8.00005 11.3631 8.73755 10.0504 10.0503C8.73761 11.3631 8.00011 13.1435 8.00011 15.0001ZM18.5401 20.0001L18.5901 20.0501H15.0001C13.8435 20.048 12.7233 19.645 11.8304 18.9097C10.9376 18.1743 10.3273 17.1522 10.1035 16.0174C9.87973 14.8826 10.0563 13.7053 10.6032 12.6861C11.1501 11.6669 12.0334 10.8688 13.1027 10.4278C14.172 9.98675 15.3611 9.93011 16.4674 10.2675C17.5738 10.6049 18.529 11.3154 19.1703 12.278C19.8115 13.2406 20.0992 14.3958 19.9843 15.5468C19.8694 16.6977 19.359 17.7732 18.5401 18.5901C18.3517 18.7747 18.2439 19.0263 18.2401 19.2901C18.2407 19.4224 18.2675 19.5532 18.319 19.6751C18.3705 19.797 18.4456 19.9074 18.5401 20.0001Z" fill="#5A5A5A"/>
</svg>
