<svg width="12" height="13" viewBox="0 0 12 13" fill="none" xmlns="http://www.w3.org/2000/svg">
<g clip-path="url(#clip0_1767_9843)">
<path d="M9.51561 5.4453H6.60598L9.11772 1.02597C9.17989 0.917113 9.17952 0.783538 9.11672 0.675048C9.05354 0.56665 8.93782 0.5 8.81249 0.5H4.59375C4.44241 0.5 4.3081 0.596863 4.26041 0.740325L2.15104 7.09187C2.11497 7.19899 2.13318 7.31709 2.1991 7.40873C2.26539 7.50047 2.3715 7.55467 2.48438 7.55467H5.46688L3.56763 12.0101C3.4996 12.1684 3.55664 12.3528 3.70221 12.445C3.8454 12.5366 4.03775 12.5125 4.15329 12.382L9.77827 6.03041C9.87028 5.92705 9.89299 5.77901 9.83632 5.65303C9.77965 5.52669 9.65404 5.4453 9.51561 5.4453Z" fill="#DED04D"/>
</g>
<defs>
<clipPath id="clip0_1767_9843">
<rect width="12" height="12" fill="white" transform="translate(0 0.5)"/>
</clipPath>
</defs>
</svg>
