<svg width="14" height="14" viewBox="0 0 14 14" fill="none" xmlns="http://www.w3.org/2000/svg">
<path d="M7 14C10.866 14 14 10.866 14 7C14 3.13401 10.866 0 7 0C3.13401 0 0 3.13401 0 7C0 10.866 3.13401 14 7 14Z" fill="#F0F0F0"/>
<path d="M14.0005 7.00013C14.0009 5.57064 13.5638 4.17528 12.7477 3.00164C11.9316 1.82799 10.7758 0.932328 9.43555 0.435059V13.5643C10.7756 13.067 11.9313 12.1715 12.7474 10.9981C13.5635 9.8246 14.0007 8.42945 14.0005 7.00013Z" fill="#D80027"/>
<path d="M3.64509e-07 7.00013C-0.000270222 8.42945 0.437015 9.8246 1.25308 10.9981C2.06915 12.1715 3.22488 13.067 4.56493 13.5643V0.435059C3.22473 0.932328 2.06889 1.82799 1.25281 3.00164C0.436736 4.17528 -0.000460832 5.57064 3.64509e-07 7.00013Z" fill="#0052B4"/>
</svg>
