<svg width="14" height="15" viewBox="0 0 14 15" fill="none" xmlns="http://www.w3.org/2000/svg">
<path d="M0.4375 9.4337C0.933927 10.7747 1.82913 11.9314 3.00269 12.7484C4.17624 13.5653 5.57184 14.0032 7.00174 14.0032C8.43164 14.0032 9.82724 13.5653 11.0008 12.7484C12.1743 11.9314 13.0696 10.7747 13.566 9.4337L7.00127 8.8252L0.4375 9.4337Z" fill="#FFDA44"/>
<path d="M7.00221 3.64489e-07C5.5728 -0.000460807 4.17752 0.436712 3.00394 1.25275C1.83036 2.06878 0.934743 3.22455 0.4375 4.56468L7.00221 5.17318L13.5669 4.56468C13.0697 3.22455 12.1741 2.06878 11.0005 1.25275C9.8269 0.436712 8.43161 -0.000460807 7.00221 3.64489e-07Z" fill="black"/>
<path d="M0.435324 4.56641C-0.145108 6.13749 -0.145108 7.86425 0.435324 9.43534H13.5647C14.1451 7.86424 14.1451 6.1375 13.5647 4.56641H0.435324Z" fill="#D80027"/>
</svg>
