<svg width="24" height="24" viewBox="0 0 24 24" fill="none" xmlns="http://www.w3.org/2000/svg">
<path d="M14.41 6.53007C14.0964 6.59932 13.7716 6.60034 13.4576 6.53305C13.1436 6.46576 12.8477 6.33174 12.59 6.14006C12.4187 6.01492 12.2121 5.94747 12 5.94747C11.7879 5.94747 11.5813 6.01492 11.41 6.14006C11.1523 6.33174 10.8564 6.46576 10.5424 6.53305C10.2284 6.60034 9.90359 6.59932 9.59 6.53007C9.44394 6.49852 9.29267 6.50012 9.1473 6.53473C9.00194 6.56934 8.86618 6.63609 8.75 6.73006C8.63398 6.82418 8.54052 6.9431 8.4765 7.07808C8.41247 7.21306 8.3795 7.36067 8.38 7.51007V10.4101C8.373 11.0528 8.51574 11.6883 8.79692 12.2663C9.07811 12.8443 9.49001 13.3489 10 13.7401L11.37 14.7401C11.5413 14.8652 11.7479 14.9327 11.96 14.9327C12.1721 14.9327 12.3787 14.8652 12.55 14.7401L13.92 13.7401C14.4374 13.353 14.8569 12.8503 15.1452 12.2721C15.4334 11.6938 15.5823 11.0562 15.58 10.4101V7.51007C15.5805 7.36067 15.5475 7.21306 15.4835 7.07808C15.4195 6.9431 15.326 6.82418 15.21 6.73006C15.0985 6.64177 14.9695 6.57825 14.8316 6.54376C14.6936 6.50928 14.5499 6.50461 14.41 6.53007ZM13.62 10.4101C13.6227 10.7447 13.5473 11.0753 13.3997 11.3757C13.2522 11.676 13.0365 11.9377 12.77 12.1401L12 12.7101L11.23 12.1401C10.9635 11.9377 10.7478 11.676 10.6003 11.3757C10.4527 11.0753 10.3773 10.7447 10.38 10.4101V8.57006C10.9447 8.53025 11.4957 8.37721 12 8.12006C12.5044 8.37721 13.0553 8.53025 13.62 8.57006V10.4101ZM20.46 9.63006C20.3196 8.16898 19.8032 6.76915 18.9612 5.56688C18.1191 4.36462 16.9801 3.4009 15.655 2.76956C14.3299 2.13822 12.8639 1.86079 11.3997 1.96427C9.93555 2.06775 8.52314 2.54863 7.3 3.36006C6.2492 4.06271 5.36706 4.98936 4.71695 6.07346C4.06684 7.15755 3.6649 8.37217 3.54 9.63006C3.41749 10.8797 3.57468 12.141 4.00017 13.3223C4.42567 14.5037 5.1088 15.5755 6 16.4601L11.3 21.7701C11.393 21.8638 11.5036 21.9382 11.6254 21.989C11.7473 22.0397 11.878 22.0659 12.01 22.0659C12.142 22.0659 12.2727 22.0397 12.3946 21.989C12.5164 21.9382 12.627 21.8638 12.72 21.7701L18 16.4601C18.8912 15.5755 19.5743 14.5037 19.9998 13.3223C20.4253 12.141 20.5825 10.8797 20.46 9.63006ZM16.6 15.0501L12 19.6501L7.4 15.0501C6.72209 14.3721 6.20281 13.5524 5.87947 12.6498C5.55614 11.7473 5.43679 10.7843 5.53 9.83006C5.62382 8.86117 5.93177 7.92522 6.43157 7.08991C6.93138 6.25459 7.61056 5.54077 8.42 5.00006C9.48095 4.2953 10.7263 3.91936 12 3.91936C13.2737 3.91936 14.5191 4.2953 15.58 5.00006C16.387 5.53868 17.0647 6.24935 17.5644 7.081C18.064 7.91266 18.3733 8.84467 18.47 9.81007C18.5663 10.7675 18.4484 11.7343 18.125 12.6406C17.8016 13.5469 17.2807 14.3699 16.6 15.0501Z" fill="black"/>
</svg>
