<svg width="117" height="23" viewBox="0 0 117 23" fill="none" xmlns="http://www.w3.org/2000/svg">
<path d="M15.44 7.84V0.64H17.93V22H14.87L7.79 10.99C5.75 7.75 4.27 5.34 3.35 3.76C3.41 6.56 3.44 10.24 3.44 14.8V22H0.95V0.64H4.01L11.09 11.65C13.13 14.89 14.61 17.3 15.53 18.88C15.47 16.08 15.44 12.4 15.44 7.84ZM31.7422 15.28V6.52H34.1422V22H31.8622V19.69C30.6822 21.47 29.0622 22.36 27.0022 22.36C25.2822 22.36 23.9422 21.89 22.9822 20.95C22.0222 20.01 21.5422 18.69 21.5422 16.99V6.52H23.9422V16.75C23.9422 19.05 25.1222 20.2 27.4822 20.2C28.6022 20.2 29.5922 19.78 30.4522 18.94C31.3122 18.1 31.7422 16.88 31.7422 15.28ZM50.9134 22H48.1234L42.9034 13.69L40.1434 16.27V22H37.7434V0.64H40.1434V13.45L47.3134 6.52H50.4934L44.6134 12.1L50.9134 22ZM54.9676 22H52.5676V0.64H54.9676V22ZM72.0734 14.26V15.1H60.3134C60.4334 16.78 60.9034 18.05 61.7234 18.91C62.5434 19.75 63.6634 20.17 65.0834 20.17C67.2234 20.17 68.5934 19.21 69.1934 17.29H71.6834C71.2634 18.85 70.4834 20.09 69.3434 21.01C68.2034 21.91 66.7634 22.36 65.0234 22.36C62.8834 22.36 61.1534 21.63 59.8334 20.17C58.4934 18.71 57.8234 16.74 57.8234 14.26C57.8234 11.82 58.4834 9.86 59.8034 8.38C61.1034 6.9 62.8234 6.16 64.9634 6.16C67.1834 6.16 68.9234 6.93 70.1834 8.47C71.4434 10.01 72.0734 11.94 72.0734 14.26ZM64.9634 8.35C63.7034 8.35 62.6734 8.75 61.8734 9.55C61.0734 10.33 60.5734 11.46 60.3734 12.94H69.4934C69.3734 11.58 68.9134 10.48 68.1134 9.64C67.3134 8.78 66.2634 8.35 64.9634 8.35Z" fill="#DDDDDD"/>
<path d="M82.5111 6.16C84.6911 6.16 86.4411 6.89 87.7611 8.35C89.0611 9.83 89.7111 11.8 89.7111 14.26C89.7111 16.7 89.0611 18.66 87.7611 20.14C86.4411 21.62 84.6911 22.36 82.5111 22.36C80.2111 22.36 78.4411 21.44 77.2011 19.6V22H74.9211V0.64H77.3211V8.74C78.5611 7.02 80.2911 6.16 82.5111 6.16ZM82.2111 20.2C83.7111 20.2 84.9111 19.66 85.8111 18.58C86.7311 17.48 87.1911 16 87.1911 14.14C87.1911 12.32 86.7411 10.9 85.8411 9.88C84.9611 8.84 83.7511 8.32 82.2111 8.32C80.6911 8.32 79.4811 8.84 78.5811 9.88C77.6811 10.92 77.2311 12.38 77.2311 14.26C77.2311 16.12 77.6811 17.57 78.5811 18.61C79.4811 19.67 80.6911 20.2 82.2111 20.2ZM104.925 20.05H105.795V22C105.395 22.06 104.955 22.09 104.475 22.09C102.855 22.09 101.985 21.35 101.865 19.87C100.785 21.53 99.1048 22.36 96.8248 22.36C95.1248 22.36 93.7848 21.97 92.8048 21.19C91.8448 20.39 91.3648 19.27 91.3648 17.83C91.3648 15.03 93.2748 13.43 97.0948 13.03L99.3148 12.79C100.935 12.61 101.745 11.9 101.745 10.66C101.745 9.8 101.475 9.18 100.935 8.8C100.415 8.42 99.5248 8.23 98.2648 8.23C96.9248 8.23 95.9548 8.46 95.3548 8.92C94.7748 9.36 94.4448 10.15 94.3648 11.29H91.9648C92.1648 7.87 94.2648 6.16 98.2648 6.16C102.145 6.16 104.085 7.66 104.085 10.66V19.3C104.085 19.8 104.365 20.05 104.925 20.05ZM96.9448 20.32C98.2248 20.32 99.3448 19.93 100.305 19.15C101.265 18.39 101.745 17.3 101.745 15.88V14.05C101.305 14.39 100.625 14.61 99.7048 14.71L97.4548 14.98C96.1548 15.14 95.2248 15.44 94.6648 15.88C94.1248 16.32 93.8548 16.95 93.8548 17.77C93.8548 18.57 94.1148 19.2 94.6348 19.66C95.1548 20.1 95.9248 20.32 96.9448 20.32ZM110.163 22H107.763V0.64H110.163V22ZM116.169 22H113.769V0.64H116.169V22Z" fill="#25A45B"/>
</svg>
