<svg width="24" height="24" viewBox="0 0 24 24" fill="none" xmlns="http://www.w3.org/2000/svg">
<path d="M22.6013 2.06205C22.5561 1.89077 22.4664 1.73453 22.3411 1.60929C22.2159 1.48404 22.0597 1.39428 21.8884 1.34916C19.837 0.816345 17.6768 0.873732 15.6567 1.51471C13.6365 2.15569 11.8384 3.35419 10.4694 4.97222L9.3545 6.29605L6.7497 5.66757C6.11644 5.4468 5.42469 5.46262 4.80218 5.71212C4.17968 5.96161 3.66848 6.42793 3.36298 7.02495L1.16279 10.9248C1.0857 11.0614 1.04183 11.2143 1.03472 11.371C1.02761 11.5277 1.05747 11.6838 1.12187 11.8268C1.18628 11.9699 1.28343 12.0957 1.40547 12.1943C1.52752 12.2928 1.67103 12.3612 1.82441 12.394L4.89716 13.0527C4.63687 13.8451 4.45101 14.66 4.34199 15.4868C4.32223 15.6387 4.33762 15.7931 4.38697 15.9382C4.43633 16.0832 4.51833 16.2149 4.62665 16.3232L7.72675 19.4233C7.81957 19.5162 7.92978 19.5899 8.0511 19.6402C8.17241 19.6905 8.30244 19.7163 8.43375 19.7163C8.46256 19.7163 8.49137 19.7149 8.52067 19.7124C9.36601 19.6364 10.2011 19.4722 11.0122 19.2224L11.6559 22.2256C11.6888 22.379 11.7573 22.5224 11.8558 22.6444C11.9544 22.7664 12.0803 22.8635 12.2233 22.9279C12.3663 22.9923 12.5224 23.0222 12.6791 23.0151C12.8357 23.0081 12.9885 22.9642 13.1252 22.8872L17.0304 20.6846C17.5801 20.3506 18.0094 19.8507 18.2566 19.2569C18.5037 18.6631 18.5558 18.0062 18.4054 17.3809L17.7367 14.6219L18.9738 13.4844C20.5979 12.1193 21.801 10.3211 22.4431 8.299C23.0853 6.27692 23.1401 4.11407 22.6013 2.06205ZM3.57246 10.7232L5.12861 7.96343C5.22527 7.77607 5.38994 7.63279 5.58886 7.56297C5.78779 7.49315 6.00588 7.50208 6.19843 7.58794L7.91584 8.00414L7.26584 8.77593C6.6496 9.5145 6.11661 10.3187 5.67652 11.174L3.57246 10.7232ZM16.0427 18.9454L13.3269 20.477L12.8974 18.4724C13.768 18.0382 14.5791 17.4938 15.3107 16.8525L16.0543 16.1689L16.4577 17.8335C16.51 18.039 16.4983 18.2557 16.4242 18.4544C16.35 18.6531 16.2169 18.8244 16.0427 18.9454ZM17.6569 11.98L13.9724 15.3663C12.5139 16.6276 10.715 17.4293 8.80195 17.6705L6.39765 15.2662C6.72057 13.3482 7.54937 11.551 8.79853 10.0602L10.4769 8.0675C10.5048 8.03824 10.5309 8.00726 10.555 7.97473L11.9899 6.27105C13.0509 5.01794 14.4254 4.06885 15.9732 3.52069C17.5209 2.97253 19.1864 2.84493 20.7995 3.15093C21.1129 4.76915 20.9867 6.44179 20.434 7.99465C19.8812 9.5475 18.9223 10.9238 17.6569 11.98ZM16.7339 5.81629C16.4373 5.81629 16.1473 5.90426 15.9006 6.06908C15.6539 6.2339 15.4616 6.46817 15.3481 6.74226C15.2346 7.01635 15.2049 7.31795 15.2628 7.60892C15.3206 7.89989 15.4635 8.16717 15.6733 8.37695C15.8831 8.58672 16.1503 8.72959 16.4413 8.78746C16.7323 8.84534 17.0339 8.81564 17.308 8.70211C17.582 8.58857 17.8163 8.39632 17.9811 8.14964C18.146 7.90297 18.2339 7.61296 18.2339 7.31629C18.2339 7.1193 18.1952 6.92423 18.1198 6.74223C18.0444 6.56024 17.9339 6.39487 17.7946 6.25558C17.6553 6.11628 17.4899 6.00579 17.3079 5.93042C17.1259 5.85504 16.9309 5.81625 16.7339 5.81627L16.7339 5.81629Z" fill="#5A5A5A"/>
</svg>
