<svg width="14" height="14" viewBox="0 0 14 14" fill="none" xmlns="http://www.w3.org/2000/svg">
<path d="M6.99959 13.9992C10.8653 13.9992 13.9992 10.8653 13.9992 6.99959C13.9992 3.13382 10.8653 0 6.99959 0C3.13382 0 0 3.13382 0 6.99959C0 10.8653 3.13382 13.9992 6.99959 13.9992Z" fill="#F0F0F0"/>
<path d="M13.5647 9.43531C14.1451 7.86424 14.1451 6.13748 13.5647 4.56641H0.435322C-0.145107 6.13748 -0.145107 7.86424 0.435322 9.43531L7 10.0438L13.5647 9.43531Z" fill="#0052B4"/>
<path d="M7.00218 13.9982C8.43158 13.9987 9.82685 13.5616 11.0004 12.7455C12.174 11.9295 13.0696 10.7737 13.5669 9.43359H0.4375C0.93474 10.7737 1.83035 11.9295 3.00393 12.7455C4.1775 13.5616 5.57278 13.9987 7.00218 13.9982Z" fill="#D80027"/>
</svg>
