<svg width="20" height="20" viewBox="0 0 20 20" fill="none" xmlns="http://www.w3.org/2000/svg">
<path d="M14.9999 11.6666C14.5075 11.6699 14.022 11.7821 13.5782 11.9954C13.1344 12.2086 12.7434 12.5176 12.4332 12.8999L8.18321 10.9416C8.38304 10.3297 8.38304 9.67014 8.18321 9.05826L12.4332 7.09993C12.9346 7.7049 13.6335 8.11333 14.4067 8.25313C15.1798 8.39293 15.9776 8.25512 16.659 7.86402C17.3405 7.47291 17.8619 6.85366 18.1312 6.11555C18.4005 5.37744 18.4004 4.56792 18.131 3.82985C17.8615 3.09179 17.34 2.47263 16.6585 2.08166C15.977 1.69068 15.1792 1.55301 14.4061 1.69295C13.6329 1.83289 12.9341 2.24145 12.4328 2.84651C11.9316 3.45157 11.6602 4.21425 11.6665 4.99993C11.6691 5.19846 11.6886 5.3964 11.7249 5.5916L7.32488 7.6166C6.85578 7.15791 6.26175 6.84786 5.61722 6.72529C4.97269 6.60271 4.30631 6.67307 3.70159 6.92754C3.09687 7.18201 2.58068 7.60928 2.21771 8.15582C1.85475 8.70235 1.66113 9.34385 1.66113 9.99993C1.66113 10.656 1.85475 11.2975 2.21771 11.844C2.58068 12.3906 3.09687 12.8178 3.70159 13.0723C4.30631 13.3268 4.97269 13.3971 5.61722 13.2746C6.26175 13.152 6.85578 12.8419 7.32488 12.3833L11.7249 14.4083C11.6886 14.6035 11.6691 14.8014 11.6665 14.9999C11.6665 15.6592 11.862 16.3037 12.2283 16.8518C12.5946 17.4 13.1152 17.8272 13.7243 18.0795C14.3334 18.3318 15.0036 18.3978 15.6502 18.2692C16.2968 18.1406 16.8907 17.8231 17.3569 17.357C17.8231 16.8908 18.1405 16.2968 18.2692 15.6502C18.3978 15.0036 18.3318 14.3334 18.0795 13.7243C17.8272 13.1152 17.3999 12.5946 16.8518 12.2284C16.3036 11.8621 15.6592 11.6666 14.9999 11.6666ZM14.9999 3.33327C15.3295 3.33327 15.6518 3.43101 15.9258 3.61415C16.1999 3.79729 16.4135 4.05758 16.5397 4.36213C16.6658 4.66667 16.6988 5.00178 16.6345 5.32508C16.5702 5.64838 16.4115 5.94536 16.1784 6.17844C15.9453 6.41153 15.6483 6.57026 15.325 6.63457C15.0017 6.69888 14.6666 6.66588 14.3621 6.53973C14.0575 6.41358 13.7972 6.19996 13.6141 5.92588C13.431 5.6518 13.3332 5.32957 13.3332 4.99993C13.3332 4.5579 13.5088 4.13398 13.8214 3.82142C14.1339 3.50886 14.5579 3.33327 14.9999 3.33327ZM4.99988 11.6666C4.67025 11.6666 4.34801 11.5688 4.07393 11.3857C3.79985 11.2026 3.58623 10.9423 3.46008 10.6377C3.33394 10.3332 3.30093 9.99808 3.36524 9.67478C3.42955 9.35148 3.58828 9.05451 3.82137 8.82142C4.05446 8.58833 4.35143 8.4296 4.67473 8.36529C4.99803 8.30098 5.33314 8.33399 5.63769 8.46013C5.94223 8.58628 6.20253 8.7999 6.38566 9.07398C6.5688 9.34806 6.66655 9.67029 6.66655 9.99993C6.66655 10.442 6.49095 10.8659 6.17839 11.1784C5.86583 11.491 5.44191 11.6666 4.99988 11.6666ZM14.9999 16.6666C14.6702 16.6666 14.348 16.5688 14.0739 16.3857C13.7998 16.2026 13.5862 15.9423 13.4601 15.6377C13.3339 15.3332 13.3009 14.9981 13.3652 14.6748C13.4295 14.3515 13.5883 14.0545 13.8214 13.8214C14.0545 13.5883 14.3514 13.4296 14.6747 13.3653C14.998 13.301 15.3331 13.334 15.6377 13.4601C15.9422 13.5863 16.2025 13.7999 16.3857 14.074C16.5688 14.3481 16.6665 14.6703 16.6665 14.9999C16.6665 15.442 16.491 15.8659 16.1784 16.1784C15.8658 16.491 15.4419 16.6666 14.9999 16.6666Z" fill="#DDDDDD"/>
</svg>
