<svg width="14" height="14" viewBox="0 0 14 14" fill="none" xmlns="http://www.w3.org/2000/svg">
<path d="M6.99952 13.9996C10.8652 13.9996 13.999 10.8672 13.999 7.00321C13.999 3.13922 10.8652 0.00683594 6.99952 0.00683594C3.13379 0.00683594 0 3.13922 0 7.00321C0 10.8672 3.13379 13.9996 6.99952 13.9996Z" fill="#F0F0F0"/>
<path d="M1.45188 2.73291C0.894098 3.4576 0.484391 4.28488 0.246094 5.16765H3.88584L1.45188 2.73291Z" fill="#0052B4"/>
<path d="M13.7588 5.17107C13.5205 4.28831 13.1108 3.46103 12.553 2.73633L10.1172 5.17107H13.7588Z" fill="#0052B4"/>
<path d="M0.246094 8.81763C0.484414 9.70038 0.894118 10.5277 1.45188 11.2524L3.88771 8.81763H0.246094Z" fill="#0052B4"/>
<path d="M11.2679 1.44425C10.5428 0.886726 9.71519 0.477204 8.83203 0.239014V3.87713L11.2679 1.44425Z" fill="#0052B4"/>
<path d="M2.73242 12.5454C3.45743 13.1029 4.28509 13.5125 5.16826 13.7507V10.1125L2.73242 12.5454Z" fill="#0052B4"/>
<path d="M5.16826 0.239014C4.28509 0.477204 3.45743 0.886726 2.73242 1.44425L5.16826 3.87899V0.239014Z" fill="#0052B4"/>
<path d="M8.83203 13.7491C9.71518 13.5109 10.5429 13.1014 11.2679 12.5439L8.83203 10.1091V13.7491Z" fill="#0052B4"/>
<path d="M10.1172 8.81763L12.553 11.2524C13.1108 10.5277 13.5205 9.70039 13.7588 8.81763H10.1172Z" fill="#0052B4"/>
<path d="M13.9407 6.08452H7.91274V0.0592503C7.3065 -0.0197501 6.69257 -0.0197501 6.08633 0.0592503V6.08452H0.059277C-0.019759 6.69049 -0.019759 7.30414 0.059277 7.91011H6.08726V13.9345C6.6935 14.0135 7.30743 14.0135 7.91367 13.9345V7.90918H13.9407C14.0198 7.30321 14.0198 6.68956 13.9407 6.08359V6.08452Z" fill="#D80027"/>
<path d="M8.83203 8.82129L11.9557 11.9435C12.0994 11.7999 12.2366 11.6503 12.3673 11.4948L9.69344 8.82223H8.83297L8.83203 8.82129Z" fill="#D80027"/>
<path d="M5.17443 8.82129L2.05078 11.9436C2.1945 12.0872 2.34413 12.2243 2.49968 12.3549L5.17349 9.68231L5.17443 8.82129Z" fill="#D80027"/>
<path d="M5.17585 5.17205L2.0522 2.0498C1.90848 2.19346 1.77128 2.34303 1.64062 2.4985L4.31631 5.17205H5.17678H5.17585Z" fill="#D80027"/>
<path d="M8.83203 5.17353L11.9557 2.05128C11.812 1.90762 11.6623 1.77049 11.5068 1.63989L8.83203 4.31344V5.17353Z" fill="#D80027"/>
</svg>
