<svg width="20" height="20" viewBox="0 0 20 20" fill="none" xmlns="http://www.w3.org/2000/svg">
<path d="M17.5003 8.74984H16.667V7.9165C16.667 7.69549 16.5792 7.48353 16.4229 7.32725C16.2666 7.17097 16.0547 7.08317 15.8337 7.08317C15.6126 7.08317 15.4007 7.17097 15.2444 7.32725C15.0881 7.48353 15.0003 7.69549 15.0003 7.9165V8.74984H14.167C13.946 8.74984 13.734 8.83764 13.5777 8.99392C13.4215 9.1502 13.3337 9.36216 13.3337 9.58317C13.3337 9.80418 13.4215 10.0161 13.5777 10.1724C13.734 10.3287 13.946 10.4165 14.167 10.4165H15.0003V11.2498C15.0003 11.4709 15.0881 11.6828 15.2444 11.8391C15.4007 11.9954 15.6126 12.0832 15.8337 12.0832C16.0547 12.0832 16.2666 11.9954 16.4229 11.8391C16.5792 11.6828 16.667 11.4709 16.667 11.2498V10.4165H17.5003C17.7213 10.4165 17.9333 10.3287 18.0896 10.1724C18.2459 10.0161 18.3337 9.80418 18.3337 9.58317C18.3337 9.36216 18.2459 9.1502 18.0896 8.99392C17.9333 8.83764 17.7213 8.74984 17.5003 8.74984ZM11.0837 10.1832C11.5283 9.79828 11.885 9.32224 12.1294 8.78736C12.3738 8.25247 12.5003 7.67126 12.5003 7.08317C12.5003 5.9781 12.0613 4.91829 11.2799 4.13689C10.4985 3.35549 9.43873 2.9165 8.33366 2.9165C7.22859 2.9165 6.16878 3.35549 5.38738 4.13689C4.60598 4.91829 4.16699 5.9781 4.16699 7.08317C4.16699 7.67126 4.29349 8.25247 4.53793 8.78736C4.78237 9.32224 5.13901 9.79828 5.58366 10.1832C4.41711 10.7114 3.42738 11.5644 2.73281 12.6403C2.03824 13.7161 1.66822 14.9693 1.66699 16.2498C1.66699 16.4709 1.75479 16.6828 1.91107 16.8391C2.06735 16.9954 2.27931 17.0832 2.50033 17.0832C2.72134 17.0832 2.9333 16.9954 3.08958 16.8391C3.24586 16.6828 3.33366 16.4709 3.33366 16.2498C3.33366 14.9238 3.86044 13.652 4.79813 12.7143C5.73581 11.7766 7.00758 11.2498 8.33366 11.2498C9.65974 11.2498 10.9315 11.7766 11.8692 12.7143C12.8069 13.652 13.3337 14.9238 13.3337 16.2498C13.3337 16.4709 13.4215 16.6828 13.5777 16.8391C13.734 16.9954 13.946 17.0832 14.167 17.0832C14.388 17.0832 14.6 16.9954 14.7562 16.8391C14.9125 16.6828 15.0003 16.4709 15.0003 16.2498C14.9991 14.9693 14.6291 13.7161 13.9345 12.6403C13.2399 11.5644 12.2502 10.7114 11.0837 10.1832ZM8.33366 9.58317C7.83921 9.58317 7.35586 9.43655 6.94473 9.16185C6.53361 8.88714 6.21318 8.4967 6.02396 8.03988C5.83474 7.58306 5.78523 7.0804 5.8817 6.59545C5.97816 6.11049 6.21626 5.66504 6.56589 5.3154C6.91552 4.96577 7.36098 4.72767 7.84593 4.63121C8.33089 4.53474 8.83355 4.58425 9.29037 4.77347C9.74718 4.96269 10.1376 5.28312 10.4123 5.69425C10.687 6.10537 10.8337 6.58872 10.8337 7.08317C10.8337 7.74621 10.5703 8.3821 10.1014 8.85094C9.63259 9.31978 8.9967 9.58317 8.33366 9.58317Z" fill="#DDDDDD"/>
</svg>
